<svg xmlns="http://www.w3.org/2000/svg" viewBox="0 0 586 586"><defs><style>.cls-1{fill:#05703c;}.cls-2{fill:#065b2f;}.cls-3{fill:#fefefe;}.cls-4{fill:#f7e8e0;}.cls-5{fill:#edc7b2;}.cls-6{fill:#e3a684;}</style></defs><title>novo</title><g id="Camada_2" data-name="Camada 2"><g id="Camada_1-2" data-name="Camada 1"><path class="cls-1" d="M0,329.63V256.38c2.63-12.23,2.07-24.86,4.37-37.1,7.19-38.29,24.85-71.89,47.55-103,36.6-50.07,84.61-84.93,142.94-105.91,18.61-6.69,38-7.46,57.26-9.26,2.21-.21,4.6.6,6.54-1.15h68.67c8.13,2,16.48,1.77,24.73,2.56C401.85,7.33,443.12,31.1,481.49,61c33,25.7,57.89,58.36,77.49,95,16.39,30.65,26,63.33,25.88,98.43,0,1.53,0,3,1.14,4.25v11.45c-5.13,7.52-10.35,4-15.32-.06-20-16.4-39.33-33.49-59.36-49.79-26.74-21.76-52.21-45.09-80.21-65.32-5.37-11.46-14.21-15.56-26.85-14.79-15.19.92-30.48.35-45.73.12-6.45-.1-11.41-2.53-16.38-6.71-11.65-9.81-22.32-20.73-34.44-30-11.34-8.67-20-8.75-30.43,1.28-9.87,9.54-21.26,17.4-30.35,27.74-4.88,5.56-10.9,7.84-18.23,7.73-16-.24-32,.72-48-.9-13.37-1.36-21.87,5.53-24,18.93-2.17,13.92-3.62,27.94-5,41.95-1,9.63-4.64,17.14-12.86,23-11.79,8.38-23.35,17.13-34.69,26.13s-13,17.64-5.12,29.76c8.14,12.44,15.56,25.34,24.12,37.49,5.27,7.47,6.19,15.1,4,23.8-3.24,12.94-6.87,25.79-9.44,38.88-3.3,16.77-1.11,21.4,13.4,29.95,16.62,19.37,38.44,32.9,56.94,50.21,7.24,6.77,11.64,17.51,23.22,19.15,4.3,4.94,10.38,7.92,14.57,13,7.89,11.36,20.2,17.83,30.13,27,19.19,17.64,39.37,34.2,59,51.37,4.5,3.94,10.92,8.26,5.46,16H256.38c-12.23-2.64-24.86-2.06-37.11-4.37-38.28-7.22-71.89-24.85-103-47.57-50.08-36.61-84.78-84.68-106-142.93C3.06,371.11,3.79,350.06,0,329.63Z"/><path class="cls-2" d="M320.47,586c-6.55-14.64-21-21.39-31.91-31.68-21.75-20.6-46.26-38.18-66.79-60.17,1.35-1.87,2.74-3.74,5.17-4.22,19.23-3.82,36.55-12.91,54.59-19.94,9.17-3.57,17.58-3.46,26.4.63,11.73,5.45,23.63,10.57,35.73,15.14,15.93,6,22.39,3.37,31-11,7.44-12.42,13.78-25.41,21-38,4-7.05,9.17-11.76,16.83-14.33,13.72-4.6,27.52-8.95,41.13-13.84,14.6-5.24,18.16-11.67,15.46-27.09-2.43-13.87-4.43-27.84-7.77-41.5-2.3-9.4,0-17.15,4.84-24.85,6.87-11,13.49-22.08,20.28-33.09,8.63-14,7.13-22.18-5.23-32.77-10.4-8.91-21.3-17.22-32-25.73-5.52-4.38-10.33-9.4-11.41-16.52-2.29-15-5.43-29.95-6.54-45.15-.27-3.67.28-6.84,4-8.61C459.63,167,479.13,187,500.63,204.47c25.36,20.57,50.06,42,75,63,3,2.56,6.18,4.52,10.33,2.61v59.52c-3.83,20-2.8,40.58-9.85,60.26-24.53,68.53-67.53,121.71-129.56,159.65-35.68,21.82-73.72,35.78-116.16,35.33a4.63,4.63,0,0,0-3.1,1.13Z"/><path class="cls-3" d="M435.18,153.33c2.62,17.7,5.35,35.37,7.77,53.1.69,5.05,3.64,8.07,7.32,11,12,9.44,24,18.89,35.76,28.56,13.82,11.33,15.42,21.4,6.11,37-6.65,11.12-12.93,22.5-20.31,33.12-5.86,8.44-7.56,16.6-4.9,26.63,3.4,12.86,5.43,26.08,8,39.15,3.37,16.88-1.54,26.11-17.84,31.86-14.36,5.06-28.88,9.69-43.48,14-5.9,1.75-9.83,4.74-12.7,10.26-7.2,13.85-14.87,27.46-22.44,41.12-9,16.15-18.64,19.48-35.93,12.31-13.71-5.69-27.45-11.32-41-17.4a17.3,17.3,0,0,0-15.16-.1c-13.29,5.7-27,10.47-40.21,16.27a46.08,46.08,0,0,1-24.46,4c-5-2.94-9.55-6.36-13-11.11a108.21,108.21,0,0,1-22.87-34.95c-4-9.61-10.79-15.08-20.7-17.54a114.82,114.82,0,0,1-37-16.54c-16.87-8.37-20.38-15.84-16.06-34.91,3.11-13.72,5.87-27.55,9.91-41,2.26-7.51.65-12.93-3.53-19-8.87-12.82-17.23-26-25.65-39.13-8-12.52-6.16-23.95,5.58-33,12.94-10,26-20,39.28-29.46,5.48-3.9,7.93-8.54,8.52-15.09,1.33-14.77,3.24-29.5,4.83-44.25,1.8-16.63,10.38-24.53,27.12-24.2s33.48.85,50.19,1.82a14.53,14.53,0,0,0,12.14-4.45c11.2-10.85,22.71-21.39,34.16-32,11.87-11,23-11.52,35.52-1s24.87,21.28,36.84,32.43c4.64,4.32,9.42,5.7,15.45,5.42,14.82-.69,29.66-1,44.49-1.49C424.08,134.14,428.64,137.18,435.18,153.33Z"/><path class="cls-2" d="M128.21,414c16.27,4.84,32.54,9.65,48.8,14.54,3.64,1.09,6.74,2.6,8.6,6.58,7.53,16.06,15.43,32,23.19,47.91-18-11.29-32.32-27.06-48.63-40.42C149.12,433.57,138.84,423.59,128.21,414Z"/><path class="cls-1" d="M340.82,324.79c3.61-21.4,7.54-42.75,10.65-64.22,1-6.64,4.57-6.3,9.36-6.62,5.68-.38,7.86,1.57,8.67,7.29,2.39,17,5.37,33.83,8.25,50.71.59,3.48-.63,7.67,3.88,10.64,2.53-20.4,5.8-40.25,7.16-60.22.83-12.15,8.73-7.87,14.54-8.15,9.13-.45,4.28,6.54,3.78,9.61-4.69,28.93-10.46,57.7-14.66,86.7-1.41,9.73-6.75,8.31-13.19,9.06-8.22,1-9.45-3.67-10.4-9.79-2.74-17.66-5.67-35.28-8.54-53-3.53-.23-2.62,2.77-3,4.64-3.18,16.82-6.78,33.59-9.16,50.52-1.11,7.91-5.56,7.53-11.12,7.52s-10,.49-11.14-7.3C321.4,322,316.11,292,311.27,261.94c-.5-3.11-3.22-8.85,3.78-7.6,5.26.95,14-5.7,15.36,5.56,2.38,20,4.43,40.14,6.62,60.21C338.38,321.59,336.09,326,340.82,324.79Z"/><path class="cls-1" d="M194.23,309.39c.11,13.68-.07,27.38.46,41,.26,6.6-1,9.36-8.57,9.24-7.21-.12-7.72-3.22-7.68-8.94.21-28.9,0-57.79.25-86.69,0-3.37-3.2-9.25,3.8-9.8,6.15-.48,12.22-1.72,15.23,7.26,5.9,17.59,13.33,34.68,20.12,52,5.87-4.78,2.58-10.74,2.12-16.34-.07-11.81.43-23.67-.41-35.42-.63-8.88,4.74-7.32,10-7.72,6.08-.47,8.75.93,8.66,7.9-.38,29.35-.06,58.71-.3,88.06,0,3.37,2.92,9.58-4.4,9.25-5.76-.26-13,3.52-16.23-5.8-6.56-18.65-13.86-37-20.85-55.54C190.58,300.71,194.17,305.39,194.23,309.39Z"/><path class="cls-1" d="M256.38,307c0-14.46.33-28.93-.14-43.37-.23-7,1.17-10.38,9.16-9.73a189.55,189.55,0,0,0,27.37,0c7.29-.47,9.69,1.64,9.69,9.3s-2.42,9.82-9.7,9.34c-4.27-.28-11.32-2.54-12.57,1.65-2,6.63-1.48,14.4-.3,21.4.63,3.7,6,1.64,9.2,1.88,5.32.39,11-1.88,11.15,7.79.13,9.25-4.71,8.24-10.59,8.43-3.4.12-9-2.45-9.86,2.38-1.23,6.94-2.64,15,.76,21.13,2.15,3.88,9.29,1.94,13.93,1.32,9.49-1.27,10,3.42,10.26,11.07.24,8.22-2.37,10.47-10.26,9.9a185,185,0,0,0-28.51,0c-8.47.7-10.07-2.7-9.76-10.32C256.79,335.19,256.38,321.09,256.38,307Z"/><path class="cls-4" d="M220,297.13c2.48,7.57,1.58,15.38.62,23.66l-2.74-7.32C220.81,308.32,218.47,302.47,220,297.13Z"/><path class="cls-5" d="M194.23,309.39c-3.07-5.62-.56-11.78-3.24-19.46,4.68,2.72,5.38,5.12,5.46,7.92Z"/><path class="cls-6" d="M340.82,324.79c-.31,1.68-.16,4.45-1,4.82-2.42,1-2.65-1.65-2.87-3.12a37,37,0,0,1,.1-6.39Z"/></g></g></svg>